<mxfile host="app.diagrams.net" modified="2023-01-30T22:36:16.172Z" agent="5.0 (Windows NT 10.0; Win64; x64) AppleWebKit/537.36 (KHTML, like Gecko) Chrome/109.0.0.0 Safari/537.36" etag="9nUY5RgxLAnm4PSrWS5f" version="20.8.13" type="github">
  <diagram id="kgpKYQtTHZ0yAKxKKP6v" name="Page-1">
    <mxGraphModel dx="1900" dy="1649" grid="1" gridSize="10" guides="1" tooltips="1" connect="1" arrows="1" fold="1" page="1" pageScale="1" pageWidth="850" pageHeight="1100" math="0" shadow="0">
      <root>
        <mxCell id="0" />
        <mxCell id="1" parent="0" />
        <mxCell id="B34gQML11SIlmPtnuwKV-1" value="DEPARTMENT" style="shape=umlLifeline;perimeter=lifelinePerimeter;whiteSpace=wrap;html=1;container=1;collapsible=0;recursiveResize=0;outlineConnect=0;" vertex="1" parent="1">
          <mxGeometry x="100" y="-810" width="100" height="300" as="geometry" />
        </mxCell>
        <mxCell id="B34gQML11SIlmPtnuwKV-8" value="" style="rounded=1;whiteSpace=wrap;html=1;fillColor=#808080;rotation=-90;" vertex="1" parent="B34gQML11SIlmPtnuwKV-1">
          <mxGeometry x="-70" y="165" width="240" height="10" as="geometry" />
        </mxCell>
        <mxCell id="B34gQML11SIlmPtnuwKV-21" value="Locate Doctor" style="html=1;verticalAlign=bottom;endArrow=block;rounded=0;" edge="1" parent="B34gQML11SIlmPtnuwKV-1" target="B34gQML11SIlmPtnuwKV-5">
          <mxGeometry width="80" relative="1" as="geometry">
            <mxPoint x="60" y="170" as="sourcePoint" />
            <mxPoint x="140" y="170" as="targetPoint" />
          </mxGeometry>
        </mxCell>
        <mxCell id="B34gQML11SIlmPtnuwKV-22" value="locate nurse" style="html=1;verticalAlign=bottom;endArrow=block;rounded=0;" edge="1" parent="B34gQML11SIlmPtnuwKV-1" target="B34gQML11SIlmPtnuwKV-4">
          <mxGeometry width="80" relative="1" as="geometry">
            <mxPoint x="60" y="140" as="sourcePoint" />
            <mxPoint x="140" y="140" as="targetPoint" />
          </mxGeometry>
        </mxCell>
        <mxCell id="B34gQML11SIlmPtnuwKV-26" value="search for available nurse" style="html=1;verticalAlign=bottom;endArrow=block;rounded=0;" edge="1" parent="B34gQML11SIlmPtnuwKV-1" target="B34gQML11SIlmPtnuwKV-4">
          <mxGeometry width="80" relative="1" as="geometry">
            <mxPoint x="50" y="240" as="sourcePoint" />
            <mxPoint x="130" y="240" as="targetPoint" />
          </mxGeometry>
        </mxCell>
        <mxCell id="B34gQML11SIlmPtnuwKV-2" value="BED" style="shape=umlLifeline;perimeter=lifelinePerimeter;whiteSpace=wrap;html=1;container=1;collapsible=0;recursiveResize=0;outlineConnect=0;" vertex="1" parent="1">
          <mxGeometry x="860" y="-810" width="100" height="300" as="geometry" />
        </mxCell>
        <mxCell id="B34gQML11SIlmPtnuwKV-17" value="" style="rounded=1;whiteSpace=wrap;html=1;fillColor=#808080;rotation=-90;" vertex="1" parent="B34gQML11SIlmPtnuwKV-2">
          <mxGeometry x="30" y="255" width="40" height="10" as="geometry" />
        </mxCell>
        <mxCell id="B34gQML11SIlmPtnuwKV-3" value="RECEPTION" style="shape=umlLifeline;perimeter=lifelinePerimeter;whiteSpace=wrap;html=1;container=1;collapsible=0;recursiveResize=0;outlineConnect=0;" vertex="1" parent="1">
          <mxGeometry x="310" y="-810" width="100" height="300" as="geometry" />
        </mxCell>
        <mxCell id="B34gQML11SIlmPtnuwKV-9" value="" style="rounded=1;whiteSpace=wrap;html=1;fillColor=#808080;rotation=-90;" vertex="1" parent="B34gQML11SIlmPtnuwKV-3">
          <mxGeometry x="20" y="75" width="60" height="10" as="geometry" />
        </mxCell>
        <mxCell id="B34gQML11SIlmPtnuwKV-4" value="NURSE" style="shape=umlLifeline;perimeter=lifelinePerimeter;whiteSpace=wrap;html=1;container=1;collapsible=0;recursiveResize=0;outlineConnect=0;" vertex="1" parent="1">
          <mxGeometry x="690" y="-810" width="100" height="300" as="geometry" />
        </mxCell>
        <mxCell id="B34gQML11SIlmPtnuwKV-16" value="" style="rounded=1;whiteSpace=wrap;html=1;fillColor=#808080;rotation=-90;" vertex="1" parent="B34gQML11SIlmPtnuwKV-4">
          <mxGeometry x="30" y="125" width="40" height="10" as="geometry" />
        </mxCell>
        <mxCell id="B34gQML11SIlmPtnuwKV-15" value="" style="rounded=1;whiteSpace=wrap;html=1;fillColor=#808080;rotation=-90;" vertex="1" parent="B34gQML11SIlmPtnuwKV-4">
          <mxGeometry x="30" y="230" width="40" height="10" as="geometry" />
        </mxCell>
        <mxCell id="B34gQML11SIlmPtnuwKV-5" value="DOCTOR" style="shape=umlLifeline;perimeter=lifelinePerimeter;whiteSpace=wrap;html=1;container=1;collapsible=0;recursiveResize=0;outlineConnect=0;" vertex="1" parent="1">
          <mxGeometry x="500" y="-810" width="100" height="300" as="geometry" />
        </mxCell>
        <mxCell id="B34gQML11SIlmPtnuwKV-10" value="" style="rounded=1;whiteSpace=wrap;html=1;fillColor=#808080;rotation=-90;" vertex="1" parent="B34gQML11SIlmPtnuwKV-5">
          <mxGeometry x="30" y="160" width="40" height="10" as="geometry" />
        </mxCell>
        <mxCell id="B34gQML11SIlmPtnuwKV-12" value="" style="rounded=1;whiteSpace=wrap;html=1;fillColor=#808080;rotation=-90;" vertex="1" parent="B34gQML11SIlmPtnuwKV-5">
          <mxGeometry x="30" y="210" width="40" height="10" as="geometry" />
        </mxCell>
        <mxCell id="B34gQML11SIlmPtnuwKV-14" value="" style="rounded=1;whiteSpace=wrap;html=1;fillColor=#808080;rotation=-90;" vertex="1" parent="B34gQML11SIlmPtnuwKV-5">
          <mxGeometry x="30" y="260" width="40" height="10" as="geometry" />
        </mxCell>
        <mxCell id="B34gQML11SIlmPtnuwKV-25" value="display result" style="html=1;verticalAlign=bottom;endArrow=open;dashed=1;endSize=8;rounded=0;" edge="1" parent="B34gQML11SIlmPtnuwKV-5" source="B34gQML11SIlmPtnuwKV-1">
          <mxGeometry x="-0.2484" relative="1" as="geometry">
            <mxPoint x="-40" y="280" as="sourcePoint" />
            <mxPoint x="50" y="280" as="targetPoint" />
            <mxPoint as="offset" />
          </mxGeometry>
        </mxCell>
        <mxCell id="B34gQML11SIlmPtnuwKV-6" value="" style="shape=umlLifeline;participant=umlActor;perimeter=lifelinePerimeter;whiteSpace=wrap;html=1;container=1;collapsible=0;recursiveResize=0;verticalAlign=top;spacingTop=36;outlineConnect=0;" vertex="1" parent="1">
          <mxGeometry x="-20" y="-830" width="30" height="300" as="geometry" />
        </mxCell>
        <mxCell id="B34gQML11SIlmPtnuwKV-7" value="" style="rounded=1;whiteSpace=wrap;html=1;fillColor=#808080;rotation=-90;" vertex="1" parent="B34gQML11SIlmPtnuwKV-6">
          <mxGeometry x="-15" y="95" width="60" height="10" as="geometry" />
        </mxCell>
        <mxCell id="B34gQML11SIlmPtnuwKV-18" value="dispatch" style="html=1;verticalAlign=bottom;endArrow=block;rounded=0;entryX=0.912;entryY=-0.02;entryDx=0;entryDy=0;entryPerimeter=0;" edge="1" parent="1" target="B34gQML11SIlmPtnuwKV-8">
          <mxGeometry width="80" relative="1" as="geometry">
            <mxPoint y="-740" as="sourcePoint" />
            <mxPoint x="80" y="-740" as="targetPoint" />
          </mxGeometry>
        </mxCell>
        <mxCell id="B34gQML11SIlmPtnuwKV-19" value="display patient&#39;s health statistics&amp;nbsp;" style="html=1;verticalAlign=bottom;endArrow=open;dashed=1;endSize=8;rounded=0;" edge="1" parent="1">
          <mxGeometry x="-0.0526" y="10" relative="1" as="geometry">
            <mxPoint x="350" y="-720" as="sourcePoint" />
            <mxPoint x="160" y="-720" as="targetPoint" />
            <mxPoint as="offset" />
          </mxGeometry>
        </mxCell>
        <mxCell id="B34gQML11SIlmPtnuwKV-20" value="Register patient" style="html=1;verticalAlign=bottom;endArrow=block;rounded=0;" edge="1" parent="1" target="B34gQML11SIlmPtnuwKV-3">
          <mxGeometry width="80" relative="1" as="geometry">
            <mxPoint x="160" y="-750" as="sourcePoint" />
            <mxPoint x="240" y="-750" as="targetPoint" />
          </mxGeometry>
        </mxCell>
        <mxCell id="B34gQML11SIlmPtnuwKV-23" value="search available doctor" style="html=1;verticalAlign=bottom;endArrow=open;dashed=1;endSize=8;rounded=0;" edge="1" parent="1" source="B34gQML11SIlmPtnuwKV-1" target="B34gQML11SIlmPtnuwKV-5">
          <mxGeometry relative="1" as="geometry">
            <mxPoint x="460" y="-660" as="sourcePoint" />
            <mxPoint x="380" y="-660" as="targetPoint" />
            <Array as="points">
              <mxPoint x="380" y="-600" />
            </Array>
          </mxGeometry>
        </mxCell>
        <mxCell id="B34gQML11SIlmPtnuwKV-24" value="" style="endArrow=classic;html=1;rounded=0;" edge="1" parent="1" source="B34gQML11SIlmPtnuwKV-5" target="B34gQML11SIlmPtnuwKV-1">
          <mxGeometry width="50" height="50" relative="1" as="geometry">
            <mxPoint x="440" y="-520" as="sourcePoint" />
            <mxPoint x="490" y="-570" as="targetPoint" />
            <Array as="points">
              <mxPoint x="460" y="-560" />
            </Array>
          </mxGeometry>
        </mxCell>
        <mxCell id="B34gQML11SIlmPtnuwKV-28" value="search bed" style="html=1;verticalAlign=bottom;endArrow=block;rounded=0;" edge="1" parent="1" target="B34gQML11SIlmPtnuwKV-2">
          <mxGeometry x="-0.2561" y="-20" width="80" relative="1" as="geometry">
            <mxPoint x="560" y="-540" as="sourcePoint" />
            <mxPoint x="640" y="-540" as="targetPoint" />
            <mxPoint as="offset" />
          </mxGeometry>
        </mxCell>
      </root>
    </mxGraphModel>
  </diagram>
</mxfile>
